<mxfile host="app.diagrams.net" modified="2022-02-17T23:27:46.958Z" agent="5.0 (Macintosh; Intel Mac OS X 10_15_7) AppleWebKit/537.36 (KHTML, like Gecko) Chrome/98.0.4758.102 Safari/537.36" etag="jJ0TJ9bhXvLbsUiOiZly" version="16.6.1" type="github">
  <diagram id="yBvufgjlpSJkh3s_lwi6" name="Page-1">
    <mxGraphModel dx="1261" dy="693" grid="1" gridSize="10" guides="1" tooltips="1" connect="1" arrows="1" fold="1" page="1" pageScale="1" pageWidth="850" pageHeight="1100" math="0" shadow="0">
      <root>
        <mxCell id="0" />
        <mxCell id="1" parent="0" />
        <mxCell id="ALgrvqzeafOBfWhGuxEl-1" value="" style="rounded=0;whiteSpace=wrap;html=1;" vertex="1" parent="1">
          <mxGeometry x="70" y="40" width="960" height="440" as="geometry" />
        </mxCell>
        <mxCell id="ALgrvqzeafOBfWhGuxEl-3" value="Name It" style="rounded=0;whiteSpace=wrap;html=1;" vertex="1" parent="1">
          <mxGeometry x="310" y="60" width="540" height="110" as="geometry" />
        </mxCell>
      </root>
    </mxGraphModel>
  </diagram>
</mxfile>
